<?xml version="1.0" encoding="utf-8"?>
<!-- Generator: Adobe Illustrator 19.2.1, SVG Export Plug-In . SVG Version: 6.00 Build 0)  -->
<svg version="1.1" xmlns="http://www.w3.org/2000/svg" xmlns:xlink="http://www.w3.org/1999/xlink" x="0px" y="0px"
	 viewBox="0 0 770 920" style="enable-background:new 0 0 770 920;" xml:space="preserve">
<style type="text/css">
	.st0{enable-background:new    ;}
	.st1{fill-rule:evenodd;clip-rule:evenodd;fill:#FFF200;}
	.st2{fill:#222222;}
	.st3{fill-rule:evenodd;clip-rule:evenodd;fill:#222222;}
	.st4{fill-rule:evenodd;clip-rule:evenodd;fill:#666666;}
</style>
<g id="Rectangle_3_5_" class="st0">
	<g id="Rectangle_3">
		<g>
			
				<rect x="449.5" y="181.5" transform="matrix(0.9733 -0.2294 0.2294 0.9733 -56.1025 141.3643)" class="st1" width="261" height="260.9"/>
		</g>
		<g>
			<path class="st2" d="M674.1,159.9l58,246.2l-246.2,58l-58-246.2L674.1,159.9 M680.1,150.3L418.3,212l61.7,261.7L741.7,412
				L680.1,150.3L680.1,150.3z"/>
		</g>
	</g>
</g>
<g id="Rectangle_3_4_" class="st0">
	<g id="Rectangle_3_1_">
		<g>
			
				<rect x="38.7" y="361.7" transform="matrix(0.3268 -0.9451 0.9451 0.3268 -349.4438 480.4251)" class="st1" width="247.6" height="247.5"/>
		</g>
		<g>
			<path class="st2" d="M88.5,333.2l226.4,78.3l-78.3,226.4L10.2,559.6L88.5,333.2 M83.5,323L0,564.5L241.5,648L325,406.5L83.5,323
				L83.5,323z"/>
		</g>
	</g>
</g>
<g id="Group_2_1_">
	<g id="Rectangle_3_2_">
		<g>
			
				<rect x="449.5" y="371.5" transform="matrix(0.7366 -0.6764 0.6764 0.7366 -186.7454 524.5461)" class="st1" width="261" height="260.9"/>
		</g>
		<g>
			<path class="st2" d="M587.6,323.3l171.1,186.3L572.4,680.7L401.3,494.4L587.6,323.3 M588.1,312L390,493.9L571.9,692L770,510.1
				L588.1,312L588.1,312z"/>
		</g>
	</g>
	<g id="Will_automation_put_an_end_to_the_American_trucker_x3F_">
		<g>
			<path class="st3" d="M483.4,455.8h4l3.1-12.2h0.1l3.1,12.2h3.9l3.5-16.4h1v-2.4h-5.5v2.4h1.5l-2.2,10.7h-0.1l-3.3-13h-2.7
				l-3.3,13h-0.1l-2.2-10.7h1.5v-2.4h-6.6v2.4h1L483.4,455.8z M508.9,453.4h-1.3v-12.5h-5v2.5h1.3v10h-1.3v2.4h6.3V453.4z
				 M507.6,436.6h-3.8v2.8h3.8V436.6z M516,453.4h-1.2V436h-4.9v2.4h1.2v15.1h-1.2v2.4h6.2V453.4z M523.1,453.4h-1.2V436h-4.9v2.4
				h1.2v15.1h-1.2v2.4h6.2V453.4z M533.1,456c1.6,0,3.1-0.6,3.9-1.8h0.1c0.2,1.1,0.9,1.8,2.7,1.8c0.9,0,1.5-0.2,1.9-0.3v-2.2h-0.5
				c-0.6,0-0.8-0.2-0.8-1v-7.7c0-3.1-1.8-4.2-5-4.2c-2.3,0-4.1,0.5-5.4,1v2.5c1-0.3,2.3-0.5,3.7-0.5c2.1,0,2.9,0.5,2.9,1.9v1.3
				l-3.4,0.5c-2.4,0.4-4.4,1.4-4.4,4v0.7C529,454.7,530.4,456,533.1,456z M532.6,451.1c0-1.4,0.9-1.9,2.2-2l2-0.1v3.8
				c-0.6,0.5-1.4,0.9-2.2,0.9c-1.2,0-1.9-0.6-1.9-1.7V451.1z M543.6,452.3c0,2.4,1.1,3.7,3.9,3.7c1.9,0,3.4-0.7,4.5-1.6h0.1v1.4h4.8
				v-2.4h-1.2v-12.5h-4.9v2.5h1.2v8.9c-0.8,0.6-1.8,0.9-2.8,0.9c-1.3,0-1.9-0.5-1.9-1.9v-10.5h-4.9v2.5h1.2V452.3z M559.1,452.6
				c0,2.5,1.2,3.4,3.6,3.4c1.1,0,2.1-0.2,2.7-0.4v-2.2h-1.3c-0.9,0-1.3-0.4-1.3-1.4v-8.6h2.6v-2.5h-2.6v-3.1h-3.7v3.1h-1.4v2.5h1.4
				V452.6z M572.8,456c3.9,0,6.7-2.3,6.7-7.2v-1c0-4.9-2.8-7.2-6.7-7.2c-3.9,0-6.6,2.3-6.6,7.2v1C566.2,453.8,568.9,456,572.8,456z
				 M570,447.4c0-3,1.1-4.1,2.8-4.1c1.7,0,2.8,1,2.8,4.1v2c0,3-1.1,4-2.8,4c-1.7,0-2.8-1-2.8-4V447.4z M586.4,453.4h-0.9v-9.1
				c0.9-0.5,1.7-0.8,2.6-0.8c1.2,0,1.7,0.5,1.7,1.8v8.2H589v2.4h5.5v-2.4h-0.9v-8.1c0-0.4,0-0.7,0-1c0.8-0.5,1.7-0.9,2.6-0.9
				c1.2,0,1.7,0.5,1.7,1.8v8.2h-0.9v2.4h5.8v-2.4h-1.2V444c0-2.4-1.4-3.4-3.6-3.4c-2,0-3.4,0.8-4.6,1.9h-0.1
				c-0.5-1.3-1.7-1.9-3.4-1.9c-2,0-3.3,0.8-4.5,1.8h-0.1v-1.5h-4.8v2.5h1.2v10h-1.2v2.4h5.8V453.4z M608,456c1.6,0,3.1-0.6,3.9-1.8
				h0.1c0.2,1.1,0.9,1.8,2.7,1.8c0.9,0,1.5-0.2,1.9-0.3v-2.2h-0.5c-0.6,0-0.8-0.2-0.8-1v-7.7c0-3.1-1.8-4.2-5-4.2
				c-2.3,0-4.1,0.5-5.4,1v2.5c1-0.3,2.3-0.5,3.7-0.5c2.1,0,2.9,0.5,2.9,1.9v1.3l-3.4,0.5c-2.4,0.4-4.4,1.4-4.4,4v0.7
				C603.9,454.7,605.3,456,608,456z M607.5,451.1c0-1.4,0.9-1.9,2.2-2l2-0.1v3.8c-0.6,0.5-1.4,0.9-2.2,0.9c-1.2,0-1.9-0.6-1.9-1.7
				V451.1z M618.7,452.6c0,2.5,1.2,3.4,3.6,3.4c1.1,0,2.1-0.2,2.7-0.4v-2.2h-1.3c-0.9,0-1.3-0.4-1.3-1.4v-8.6h2.6v-2.5h-2.6v-3.1
				h-3.7v3.1h-1.4v2.5h1.4V452.6z M632.2,453.4h-1.3v-12.5h-5v2.5h1.3v10h-1.3v2.4h6.3V453.4z M630.9,436.6h-3.8v2.8h3.8V436.6z
				 M639.9,456c3.9,0,6.7-2.3,6.7-7.2v-1c0-4.9-2.8-7.2-6.7-7.2c-3.9,0-6.6,2.3-6.6,7.2v1C633.3,453.8,636,456,639.9,456z
				 M637.1,447.4c0-3,1.1-4.1,2.8-4.1c1.7,0,2.8,1,2.8,4.1v2c0,3-1.1,4-2.8,4c-1.7,0-2.8-1-2.8-4V447.4z M653.5,453.4h-0.9v-9.1
				c0.8-0.6,1.9-0.9,2.8-0.9c1.3,0,1.9,0.4,1.9,1.8v8.2h-0.9v2.4h5.8v-2.4H661V444c0-2.4-1.5-3.4-3.8-3.4c-2,0-3.6,0.8-4.7,1.9h-0.1
				v-1.6h-4.8v2.5h1.2v10h-1.2v2.4h5.9V453.4z M486.7,483.2c4.2,0,6.2-2.1,6.2-7.1V475c0-5.7-2.1-7-5.2-7c-1.6,0-3.1,0.7-3.9,1.7
				h-0.1v-1.4h-4.7v2.5h1.2v14.4h-1.2v2.3h6.4v-2.3h-1.6v-2.6C484.5,483,485.7,483.2,486.7,483.2z M483.9,472c0.7-0.6,1.6-1,2.5-1
				c1.8,0,2.8,0.7,2.8,3.9v1.8c0,3.1-1.3,4.1-2.9,4.1c-0.9,0-1.8-0.1-2.4-0.6V472z M503.5,481.8h0.1v1.4h4.8v-2.4h-1.2v-12.5h-4.9
				v2.5h1.2v8.9c-0.8,0.6-1.8,0.9-2.8,0.9c-1.3,0-1.9-0.5-1.9-1.9v-10.5h-4.9v2.5h1.2v8.9c0,2.4,1.1,3.7,3.9,3.7
				C500.9,483.5,502.3,482.8,503.5,481.8z M510.6,480c0,2.5,1.2,3.4,3.6,3.4c1.1,0,2.1-0.2,2.7-0.4v-2.2h-1.3
				c-0.9,0-1.3-0.4-1.3-1.4v-8.6h2.6v-2.5h-2.6v-3.1h-3.7v3.1h-1.4v2.5h1.4V480z M527.1,474.7c-2.4,0.4-4.4,1.4-4.4,4v0.7
				c0,2.6,1.5,3.9,4.2,3.9c1.6,0,3.1-0.6,3.9-1.8h0.1c0.2,1.1,0.9,1.8,2.7,1.8c0.9,0,1.5-0.2,1.9-0.3v-2.2h-0.5
				c-0.6,0-0.8-0.2-0.8-1v-7.7c0-3.1-1.8-4.2-5-4.2c-2.3,0-4.1,0.5-5.4,1v2.5c1-0.3,2.3-0.5,3.7-0.5c2.1,0,2.9,0.5,2.9,1.9v1.3
				L527.1,474.7z M530.5,480.2c-0.6,0.5-1.4,0.9-2.2,0.9c-1.2,0-1.9-0.6-1.9-1.7v-0.8c0-1.4,0.9-1.9,2.2-2l2-0.1V480.2z M551,480.9
				h-1.2v-9.5c0-2.4-1.5-3.4-3.8-3.4c-2,0-3.6,0.8-4.7,1.9h-0.1v-1.6h-4.8v2.5h1.2v10h-1.2v2.4h5.9v-2.4h-0.9v-9.1
				c0.8-0.6,1.9-0.9,2.8-0.9c1.3,0,1.9,0.4,1.9,1.8v8.2h-0.9v2.4h5.8V480.9z M569.5,474.7c0-4.6-2.2-6.7-6-6.7c-4,0-6.6,2.4-6.6,7.1
				v1.3c0,4.7,2.3,7,7.2,7c2.3,0,4-0.5,5.1-1.2V480c-1.1,0.4-2.4,0.8-4.3,0.8c-2.6,0-4.1-1-4.2-4.1h8.8V474.7z M566,474.5h-5.4
				c0-2.9,1.3-3.9,2.9-3.9c1.5,0,2.5,0.9,2.5,3.5V474.5z M575.4,469.9v-1.6h-4.8v2.5h1.2v10h-1.2v2.4h5.9v-2.4h-0.9v-9.1
				c0.8-0.6,1.9-0.9,2.8-0.9c1.3,0,1.9,0.4,1.9,1.8v8.2h-0.9v2.4h5.8v-2.4h-1.2v-9.5c0-2.4-1.5-3.4-3.8-3.4c-2,0-3.6,0.8-4.7,1.9
				H575.4z M600.2,483.2v-2.4H599v-17.4h-5.1v2.5h1.4v3.1h-0.1c-0.8-0.6-2.1-0.9-3.5-0.9c-3,0-5.5,2-5.5,7v1.3c0,5,1.7,6.9,5.4,6.9
				c1.9,0,3.2-0.6,4.1-1.6h0.1v1.4H600.2z M595.3,480c-0.7,0.6-1.5,1-2.5,1c-1.7,0-2.8-0.9-2.8-3.9v-2.1c0-3.1,1.2-4.1,2.9-4.1
				c0.9,0,1.7,0.2,2.4,0.8V480z M607.4,480c0,2.5,1.2,3.4,3.6,3.4c1.1,0,2.1-0.2,2.7-0.4v-2.2h-1.3c-0.9,0-1.3-0.4-1.3-1.4v-8.6h2.6
				v-2.5h-2.6v-3.1h-3.7v3.1h-1.4v2.5h1.4V480z M614.5,475.3v1c0,4.9,2.7,7.2,6.6,7.2c3.9,0,6.7-2.3,6.7-7.2v-1
				c0-4.9-2.8-7.2-6.7-7.2C617.2,468,614.5,470.3,614.5,475.3z M623.9,474.8v2c0,3-1.1,4-2.8,4c-1.7,0-2.8-1-2.8-4v-2
				c0-3,1.1-4.1,2.8-4.1C622.8,470.8,623.9,471.8,623.9,474.8z M641.4,470.8v-2.5h-2.6v-3.1h-3.7v3.1h-1.4v2.5h1.4v9.2
				c0,2.5,1.2,3.4,3.6,3.4c1.1,0,2.1-0.2,2.7-0.4v-2.2h-1.3c-0.9,0-1.3-0.4-1.3-1.4v-8.6H641.4z M642.3,463.4v2.4h1.2v15.1h-1.2v2.4
				h5.9v-2.4h-0.9v-9.1c0.8-0.6,1.9-0.9,2.8-0.9c1.3,0,1.9,0.4,1.9,1.8v8.2H651v2.4h5.8v-2.4h-1.2v-9.5c0-2.4-1.5-3.4-3.8-3.4
				c-2,0-3.6,0.8-4.7,1.9h-0.1v-6.5H642.3z M657.9,475.1v1.3c0,4.7,2.3,7,7.2,7c2.3,0,4-0.5,5.1-1.2V480c-1.1,0.4-2.4,0.8-4.3,0.8
				c-2.6,0-4.1-1-4.2-4.1h8.8v-2c0-4.6-2.2-6.7-6-6.7C660.5,468,657.9,470.4,657.9,475.1z M664.5,470.7c1.5,0,2.5,0.9,2.5,3.5v0.4
				h-5.4C661.6,471.7,662.9,470.7,664.5,470.7z M489.6,491.9h-4.3l-5.3,16.4h-1v2.4h5.5v-2.4H483l0.9-3.2h5.5l0.9,3.2H489v2.4h6.8
				v-2.4h-1L489.6,491.9z M484.6,502.8l2.1-6.9h0.1l2,6.9H484.6z M517.7,498.9c0-2.4-1.4-3.4-3.6-3.4c-2,0-3.4,0.8-4.6,1.9h-0.1
				c-0.5-1.3-1.7-1.9-3.4-1.9c-2,0-3.3,0.8-4.5,1.8h-0.1v-1.5h-4.8v2.5h1.2v10h-1.2v2.4h5.8v-2.4h-0.9v-9.1c0.9-0.5,1.7-0.8,2.6-0.8
				c1.2,0,1.7,0.5,1.7,1.8v8.2H505v2.4h5.5v-2.4h-0.9v-8.1c0-0.4,0-0.7,0-1c0.8-0.5,1.7-0.9,2.6-0.9c1.2,0,1.7,0.5,1.7,1.8v8.2h-0.9
				v2.4h5.8v-2.4h-1.2V498.9z M526.5,495.4c-4,0-6.6,2.4-6.6,7.1v1.3c0,4.7,2.3,7,7.2,7c2.3,0,4-0.5,5.1-1.2v-2.3
				c-1.1,0.4-2.4,0.8-4.3,0.8c-2.6,0-4.1-1-4.2-4.1h8.8v-2C532.5,497.5,530.3,495.4,526.5,495.4z M529.1,501.9h-5.4
				c0-2.9,1.3-3.9,2.9-3.9c1.5,0,2.5,0.9,2.5,3.5V501.9z M538.5,498h-0.1v-2.3h-4.8v2.5h1.3v10h-1.2v2.4h6.4v-2.4h-1.5v-8
				c0.9-0.8,2.7-1.4,4.1-1.4v-3.3C540.9,495.7,539.4,496.5,538.5,498z M548.6,495.7h-5v2.5h1.3v10h-1.3v2.4h6.3v-2.4h-1.3V495.7z
				 M544.7,494.3h3.8v-2.8h-3.8V494.3z M554.8,503.8V502c0-3.1,1.6-3.9,3.2-3.9c0.7,0,1.2,0.1,1.6,0.2v2h2.7v-4.2
				c-0.9-0.4-2.9-0.6-4.7-0.6c-3.8,0-6.8,2.1-6.8,7.1v1.5c0,4.4,2.6,6.8,6.8,6.8c2.1,0,3.6-0.5,4.7-1.1v-2.3
				c-0.8,0.4-2.2,0.8-3.6,0.8C556.4,508.2,554.8,507.1,554.8,503.8z M575.1,507.3v-7.7c0-3.1-1.8-4.2-5-4.2c-2.3,0-4.1,0.5-5.4,1
				v2.5c1-0.3,2.3-0.5,3.7-0.5c2.1,0,2.9,0.5,2.9,1.9v1.3l-3.4,0.5c-2.4,0.4-4.4,1.4-4.4,4v0.7c0,2.6,1.5,3.9,4.2,3.9
				c1.6,0,3.1-0.6,3.9-1.8h0.1c0.2,1.1,0.9,1.8,2.7,1.8c0.9,0,1.5-0.2,1.9-0.3v-2.2H576C575.4,508.3,575.1,508.1,575.1,507.3z
				 M571.4,507.6c-0.6,0.5-1.4,0.9-2.2,0.9c-1.2,0-1.9-0.6-1.9-1.7v-0.8c0-1.4,0.9-1.9,2.2-2l2-0.1V507.6z M590.7,498.8
				c0-2.4-1.5-3.4-3.8-3.4c-2,0-3.6,0.8-4.7,1.9h-0.1v-1.6h-4.8v2.5h1.2v10h-1.2v2.4h5.9v-2.4h-0.9v-9.1c0.8-0.6,1.9-0.9,2.8-0.9
				c1.3,0,1.9,0.4,1.9,1.8v8.2H586v2.4h5.8v-2.4h-1.2V498.8z M602.7,492.6H599v3.1h-1.4v2.5h1.4v9.2c0,2.5,1.2,3.4,3.6,3.4
				c1.1,0,2.1-0.2,2.7-0.4v-2.2H604c-0.9,0-1.3-0.4-1.3-1.4v-8.6h2.6v-2.5h-2.6V492.6z M611.1,498H611v-2.3h-4.8v2.5h1.3v10h-1.2
				v2.4h6.4v-2.4h-1.5v-8c0.9-0.8,2.7-1.4,4.1-1.4v-3.3C613.4,495.7,612,496.5,611.1,498z M629.5,495.7h-4.9v2.5h1.2v8.9
				c-0.8,0.6-1.8,0.9-2.8,0.9c-1.3,0-1.9-0.5-1.9-1.9v-10.5h-4.9v2.5h1.2v8.9c0,2.4,1.1,3.7,3.9,3.7c1.9,0,3.4-0.7,4.5-1.6h0.1v1.4
				h4.8v-2.4h-1.2V495.7z M635.6,503.8V502c0-3.1,1.6-3.9,3.2-3.9c0.7,0,1.2,0.1,1.6,0.2v2h2.7v-4.2c-0.9-0.4-2.9-0.6-4.7-0.6
				c-3.8,0-6.8,2.1-6.8,7.1v1.5c0,4.4,2.6,6.8,6.8,6.8c2.1,0,3.6-0.5,4.7-1.1v-2.3c-0.8,0.4-2.2,0.8-3.6,0.8
				C637.2,508.2,635.6,507.1,635.6,503.8z M653.3,501.8l3.6-3.6h1.1v-2.5h-5.6v2.5h1.2l-4.4,4.5v-11.8h-4.9v2.4h1.2v15.1h-1.2v2.4h6
				v-2.4h-1.1v-2.9l1.3-1.2l3.8,6.4h3.9v-2.4h-1L653.3,501.8z M665.4,495.4c-4,0-6.6,2.4-6.6,7.1v1.3c0,4.7,2.3,7,7.2,7
				c2.3,0,4-0.5,5.1-1.2v-2.3c-1.1,0.4-2.4,0.8-4.3,0.8c-2.6,0-4.1-1-4.2-4.1h8.8v-2C671.4,497.5,669.2,495.4,665.4,495.4z
				 M667.9,501.9h-5.4c0-2.9,1.3-3.9,2.9-3.9c1.5,0,2.5,0.9,2.5,3.5V501.9z M677.4,498h-0.1v-2.3h-4.8v2.5h1.3v10h-1.2v2.4h6.4v-2.4
				h-1.5v-8c0.9-0.8,2.7-1.4,4.1-1.4v-3.3C679.7,495.7,678.3,496.5,677.4,498z M684.1,510.6h3.4v-3.3h-3.4V510.6z M687.1,491.7
				c-2.1,0-3.5,0.3-4.7,1v2.4c1-0.4,2-0.5,3.1-0.5c1.7,0,2.9,0.4,2.9,2v0.4c0,1.6-0.9,2.2-2.1,3.1c-1.6,1.3-2,2.4-2,4.1v1.2h3.1
				v-0.8c0-1.5,0.6-2.1,2.1-3.1c1.8-1.2,2.9-2.2,2.9-4.7v-0.7C692.4,492.8,690.1,491.7,687.1,491.7z"/>
		</g>
	</g>
	<g id="Dominic_Rushe_in_Walcott_x2C__Iowa">
		<g>
			<path class="st4" d="M495.2,533v-1.6c0-5.9-2.7-8.5-8.3-8.5H479v2.4h1.3v14H479v2.4h8.1C492.6,541.6,495.2,539,495.2,533z
				 M484.4,539.1v-13.7h2.4c2.7,0,4.2,1.1,4.2,5v3.5c0,4-1.5,5.2-4.2,5.2H484.4z M503.2,541.8c3.9,0,6.7-2.3,6.7-7.2v-1
				c0-4.9-2.8-7.2-6.7-7.2c-3.9,0-6.6,2.3-6.6,7.2v1C496.6,539.6,499.3,541.8,503.2,541.8z M500.4,533.2c0-3,1.1-4.1,2.8-4.1
				c1.7,0,2.8,1,2.8,4.1v2c0,3-1.1,4-2.8,4c-1.7,0-2.8-1-2.8-4V533.2z M516.8,539.2h-0.9v-9.1c0.9-0.5,1.7-0.8,2.6-0.8
				c1.2,0,1.7,0.5,1.7,1.8v8.2h-0.9v2.4h5.5v-2.4H524v-8.1c0-0.4,0-0.7,0-1c0.8-0.5,1.7-0.9,2.6-0.9c1.2,0,1.7,0.5,1.7,1.8v8.2h-0.9
				v2.4h5.8v-2.4h-1.2v-9.4c0-2.4-1.4-3.4-3.6-3.4c-2,0-3.4,0.8-4.6,1.9h-0.1c-0.5-1.3-1.7-1.9-3.4-1.9c-2,0-3.3,0.8-4.5,1.8h-0.1
				v-1.5H511v2.5h1.2v10H511v2.4h5.8V539.2z M540.4,539.2h-1.3v-12.5h-5v2.5h1.3v10h-1.3v2.4h6.3V539.2z M539.2,522.4h-3.8v2.8h3.8
				V522.4z M551,531.1v8.2H550v2.4h5.8v-2.4h-1.2v-9.5c0-2.4-1.5-3.4-3.8-3.4c-2,0-3.6,0.8-4.7,1.9h-0.1v-1.6h-4.8v2.5h1.2v10h-1.2
				v2.4h5.9v-2.4h-0.9v-9.1c0.8-0.6,1.9-0.9,2.8-0.9C550.4,529.3,551,529.7,551,531.1z M561.8,522.4h-3.8v2.8h3.8V522.4z
				 M563.1,539.2h-1.3v-12.5h-5v2.5h1.3v10h-1.3v2.4h6.3V539.2z M567.9,534.7v-1.8c0-3.1,1.6-3.9,3.2-3.9c0.7,0,1.2,0.1,1.6,0.2v2
				h2.7V527c-0.9-0.4-2.9-0.6-4.7-0.6c-3.8,0-6.8,2.1-6.8,7.1v1.5c0,4.4,2.6,6.8,6.8,6.8c2.1,0,3.6-0.5,4.7-1.1v-2.3
				c-0.8,0.4-2.2,0.8-3.6,0.8C569.6,539.2,567.9,538.1,567.9,534.7z M588.4,539.2H587v-5.3h2.1l3.9,7.7h4.3v-2.4h-1L593,533
				c2.1-0.7,3-2.4,3-4.6v-0.6c0-2.7-1.5-4.9-6.2-4.9h-8.2v2.4h1.3v14h-1.3v2.4h6.7V539.2z M587,525.3h1.9c2.2,0,3,0.6,3,2.6v0.9
				c0,2-1.1,2.8-2.9,2.8h-2V525.3z M599.1,538.1c0,2.4,1.1,3.7,3.9,3.7c1.9,0,3.4-0.7,4.5-1.6h0.1v1.4h4.8v-2.4h-1.2v-12.5h-4.9v2.5
				h1.2v8.9c-0.8,0.6-1.8,0.9-2.8,0.9c-1.3,0-1.9-0.5-1.9-1.9v-10.5h-4.9v2.5h1.2V538.1z M624.2,537.1c0-2.5-1.4-3.7-3.9-4.4
				l-1.3-0.4c-1.5-0.4-2.1-0.8-2.1-1.9c0-1,0.6-1.6,2.2-1.6c0.9,0,1.4,0.1,1.7,0.2v1.4h2.7V527c-1.1-0.4-2.6-0.6-4.4-0.6
				c-4.1,0-5.7,1.8-5.7,4.4c0,2.4,1.1,3.8,3.6,4.5l1.4,0.4c1.4,0.4,2.1,0.8,2.1,2c0,1.2-0.8,1.9-2.5,1.9c-0.8,0-1.4-0.1-1.9-0.3
				v-1.5h-2.8v3.5c1.1,0.4,2.8,0.6,4.8,0.6C622.2,541.8,624.2,540.2,624.2,537.1z M638.5,529.8c0-2.4-1.5-3.4-3.8-3.4
				c-2,0-3.6,0.8-4.7,1.9H630v-6.5h-4.8v2.4h1.2v15.1h-1.2v2.4h5.9v-2.4h-0.9v-9.1c0.8-0.6,1.9-0.9,2.8-0.9c1.3,0,1.9,0.4,1.9,1.8
				v8.2h-0.9v2.4h5.8v-2.4h-1.2V529.8z M647.3,526.4c-4,0-6.6,2.4-6.6,7.1v1.3c0,4.7,2.3,7,7.2,7c2.3,0,4-0.5,5.1-1.2v-2.3
				c-1.1,0.4-2.4,0.8-4.3,0.8c-2.6,0-4.1-1-4.2-4.1h8.8v-2C653.3,528.4,651,526.4,647.3,526.4z M649.8,532.9h-5.4
				c0-2.9,1.3-3.9,2.9-3.9c1.5,0,2.5,0.9,2.5,3.5V532.9z M664.3,526.7h-5v2.5h1.3v10h-1.3v2.4h6.3v-2.4h-1.3V526.7z M664.3,522.4
				h-3.8v2.8h3.8V522.4z M679.8,539.2v-9.5c0-2.4-1.5-3.4-3.8-3.4c-2,0-3.6,0.8-4.7,1.9h-0.1v-1.6h-4.8v2.5h1.2v10h-1.2v2.4h5.9
				v-2.4h-0.9v-9.1c0.8-0.6,1.9-0.9,2.8-0.9c1.3,0,1.9,0.4,1.9,1.8v8.2h-0.9v2.4h5.8v-2.4H679.8z M502,550.3h-5.5v2.4h1.5l-2.2,10.7
				h-0.1l-3.3-13h-2.7l-3.3,13h-0.1l-2.2-10.7h1.5v-2.4h-6.6v2.4h1l3.5,16.4h4l3.1-12.2h0.1l3.1,12.2h3.9l3.5-16.4h1V550.3z
				 M513.3,565.7V558c0-3.1-1.8-4.2-5-4.2c-2.3,0-4.1,0.5-5.4,1v2.5c1-0.3,2.3-0.5,3.7-0.5c2.1,0,2.9,0.5,2.9,1.9v1.3l-3.4,0.5
				c-2.4,0.4-4.4,1.4-4.4,4v0.7c0,2.6,1.5,3.9,4.2,3.9c1.6,0,3.1-0.6,3.9-1.8h0.1c0.2,1.1,0.9,1.8,2.7,1.8c0.9,0,1.5-0.2,1.9-0.3
				v-2.2h-0.5C513.5,566.7,513.3,566.4,513.3,565.7z M509.6,566c-0.6,0.5-1.4,0.9-2.2,0.9c-1.2,0-1.9-0.6-1.9-1.7v-0.8
				c0-1.4,0.9-1.9,2.2-2l2-0.1V566z M520.4,549.2h-4.9v2.4h1.2v15.1h-1.2v2.4h6.2v-2.4h-1.2V549.2z M526.6,562.2v-1.8
				c0-3.1,1.6-3.9,3.2-3.9c0.7,0,1.2,0.1,1.6,0.2v2h2.7v-4.2c-0.9-0.4-2.9-0.6-4.7-0.6c-3.8,0-6.8,2.1-6.8,7.1v1.5
				c0,4.4,2.6,6.8,6.8,6.8c2.1,0,3.6-0.5,4.7-1.1v-2.3c-0.8,0.4-2.2,0.8-3.6,0.8C528.2,566.6,526.6,565.5,526.6,562.2z M542,553.8
				c-3.9,0-6.6,2.3-6.6,7.2v1c0,4.9,2.7,7.2,6.6,7.2s6.7-2.3,6.7-7.2v-1C548.6,556.1,545.8,553.8,542,553.8z M544.8,562.6
				c0,3-1.1,4-2.8,4c-1.7,0-2.8-1-2.8-4v-2c0-3,1.1-4.1,2.8-4.1c1.7,0,2.8,1,2.8,4.1V562.6z M554.6,551h-3.7v3.1h-1.4v2.5h1.4v9.2
				c0,2.5,1.2,3.4,3.6,3.4c1.1,0,2.1-0.2,2.7-0.4v-2.2h-1.3c-0.9,0-1.3-0.4-1.3-1.4v-8.6h2.6v-2.5h-2.6V551z M563.2,551h-3.7v3.1
				H558v2.5h1.4v9.2c0,2.5,1.2,3.4,3.6,3.4c1.1,0,2.1-0.2,2.7-0.4v-2.2h-1.3c-0.9,0-1.3-0.4-1.3-1.4v-8.6h2.6v-2.5h-2.6V551z
				 M567,569h1.6c-0.1,1.1-0.6,1.8-1.8,2.1v1.6c2.4-0.4,3.7-1.5,3.7-4.5v-2.7H567V569z M576.8,552.6h1.4v14h-1.4v2.4h6.9v-2.4h-1.4
				v-14h1.4v-2.4h-6.9V552.6z M591.3,553.8c-3.9,0-6.6,2.3-6.6,7.2v1c0,4.9,2.7,7.2,6.6,7.2c3.9,0,6.7-2.3,6.7-7.2v-1
				C597.9,556.1,595.1,553.8,591.3,553.8z M594.1,562.6c0,3-1.1,4-2.8,4c-1.7,0-2.8-1-2.8-4v-2c0-3,1.1-4.1,2.8-4.1
				c1.7,0,2.8,1,2.8,4.1V562.6z M614,556.6h1l-1.7,8.1h-0.1l-2.6-10.6h-3.1l-2.6,10.6h-0.1l-1.7-8.1h1v-2.5h-5.7v2.5h0.8l2.9,12.4
				h4.1l2.4-9.3h0.1l2.3,9.3h4l3.1-12.4h0.8v-2.5H614V556.6z M630.9,565.7V558c0-3.1-1.8-4.2-5-4.2c-2.3,0-4.1,0.5-5.4,1v2.5
				c1-0.3,2.3-0.5,3.7-0.5c2.1,0,2.9,0.5,2.9,1.9v1.3l-3.4,0.5c-2.4,0.4-4.4,1.4-4.4,4v0.7c0,2.6,1.5,3.9,4.2,3.9
				c1.6,0,3.1-0.6,3.9-1.8h0.1c0.2,1.1,0.9,1.8,2.7,1.8c0.9,0,1.5-0.2,1.9-0.3v-2.2h-0.5C631.1,566.7,630.9,566.4,630.9,565.7z
				 M627.1,566c-0.6,0.5-1.4,0.9-2.2,0.9c-1.2,0-1.9-0.6-1.9-1.7v-0.8c0-1.4,0.9-1.9,2.2-2l2-0.1V566z"/>
		</g>
	</g>
</g>
<g id="Group_3_1_">
	<g id="Rectangle_3_3_">
		<g>
			
				<rect x="161.5" y="77.5" transform="matrix(0.7158 -0.6983 0.6983 0.7158 -80.0666 305.2738)" class="st1" width="347" height="347"/>
		</g>
		<g>
			<path class="st2" d="M338,11.3L574.7,254L332,490.7L95.3,248L338,11.3 M338.1,0L84,247.9L331.9,502L586,254.1L338.1,0L338.1,0z"
				/>
		</g>
	</g>
	<g id="End_of">
		<g>
			<path class="st3" d="M212,242.2h-17.6v-19.8h7.6v5.2h8.5v-19.3H202v5.1h-7.6v-18h17.5v8.5h10.8v-17h-46.6v8h4.4v47.7h-4.4v8h47
				v-18.1h-11V242.2z M272.4,210.5c0-8-5.2-11.5-12.8-11.5c-6.9,0-12.1,2.7-15.9,6.4h-0.4V200H227v8.5h4.1v34.1H227v8h19.9v-8h-3.1
				v-30.9c2.8-1.9,6.5-3,9.6-3c4.3,0,6.4,1.5,6.4,6.2v27.7h-3.2v8h19.8v-8h-4V210.5z M323.7,183.5h-17.4v8.5h4.7v10.7h-0.4
				c-2.8-1.9-7.2-3-12-3c-10.2,0-18.7,6.7-18.7,23.7v4.5c0,17.1,5.8,23.6,18.2,23.6c6.4,0,10.8-1.9,13.9-5.3h0.4v4.6h15.4v-8h-4.1
				V183.5z M311,239.6c-2.3,2.1-5.1,3.4-8.5,3.4c-5.8-0.1-9.4-3.2-9.4-13.4v-7.1c0-10.4,4.2-13.9,9.9-13.9c3.1,0,5.8,0.8,8,2.7
				V239.6z M370.4,199c-13.2,0-22.5,7.9-22.5,24.6v3.3c0,16.8,9.3,24.5,22.5,24.5c13.2,0,22.6-7.7,22.6-24.5v-3.3
				C393,206.9,383.6,199,370.4,199z M380.1,229c0,10.3-3.8,13.7-9.6,13.7c-5.8,0-9.6-3.4-9.6-13.7v-6.8c0-10.3,3.8-13.8,9.6-13.8
				c5.9,0,9.6,3.5,9.6,13.8V229z M418.8,191.1h4.3v-7.5c-1.3-0.4-4.2-0.8-7.5-0.8c-9.5,0-14.8,3.4-14.8,12.7v4.6h-4v8.5h4v34.1h-4v8
				h21.9v-8h-5.1v-34.1h6.2V200h-6.2v-3.4C413.4,192.6,415.6,191.1,418.8,191.1z"/>
		</g>
	</g>
	<g id="the_road">
		<g>
			<path class="st3" d="M193.7,263.5h-12.6v10.6h-4.9v8.5h4.9v31.1c0,8.6,4.2,11.7,12.1,11.7c3.6,0,7.3-0.6,9.3-1.3v-7.4h-4.3
				c-3.1,0-4.5-1.5-4.5-4.9v-29.2h8.8v-8.5h-8.8V263.5z M250.8,284.6c0-8-5.2-11.5-12.8-11.5c-6.9,0-12.1,2.7-15.9,6.4h-0.4v-22
				h-16.4v8h4.1v51.2h-4.1v8h19.9v-8h-3.1v-30.9c2.8-1.9,6.5-3,9.6-3c4.3,0,6.4,1.5,6.4,6.2v27.7H235v8h19.8v-8h-4V284.6z
				 M280.7,273.1c-13.5,0-22.3,8-22.3,24.2v4.5c0,15.9,7.7,23.8,24.4,23.8c7.7,0,13.7-1.8,17.2-4v-7.7c-3.7,1.5-8.3,2.6-14.5,2.6
				c-9,0-14.1-3.5-14.2-13.8h29.9v-6.9C301.1,280,293.4,273.1,280.7,273.1z M289.3,295.2h-18.4c0-9.7,4.4-13.1,9.8-13.1
				c5.2,0,8.5,3,8.5,11.8V295.2z M338,281.8h-0.4v-7.7h-16.4v8.5h4.3v34.1h-4.2v8h21.9v-8h-5v-27.1c3.2-2.8,9.2-4.6,14-4.6v-11.2
				C345.9,274,341.1,276.8,338,281.8z M376.8,273.1c-13.2,0-22.5,7.9-22.5,24.6v3.3c0,16.8,9.3,24.5,22.5,24.5
				c13.2,0,22.6-7.7,22.6-24.5v-3.3C399.4,281,389.9,273.1,376.8,273.1z M386.4,303.1c0,10.3-3.8,13.7-9.6,13.7
				c-5.8,0-9.6-3.4-9.6-13.7v-6.8c0-10.3,3.8-13.8,9.6-13.8c5.9,0,9.6,3.5,9.6,13.8V303.1z M442.7,313.4v-26
				c0-10.4-6.1-14.3-17-14.3c-7.8,0-14.1,1.7-18.4,3.4v8.4c3.3-0.9,7.9-1.7,12.7-1.7c7.2,0,10,1.6,10,6.4v4.5l-11.5,1.8
				c-8.3,1.3-14.9,4.7-14.9,13.6v2.5c0,9,5,13.4,14.2,13.4c5.5,0,10.7-2.2,13.3-6.2h0.4c0.6,3.8,3,6,9.2,6c3.2,0,5.1-0.6,6.5-1.1
				v-7.4h-1.7C443.5,316.7,442.7,316,442.7,313.4z M430,314.4c-1.9,1.8-4.7,3.1-7.6,3.1c-4.1,0-6.5-2-6.5-5.9v-2.8
				c0-4.8,2.9-6.5,7.4-6.8l6.7-0.5V314.4z M494,316.7v-59.2h-17.4v8.5h4.7v10.7H481c-2.8-1.9-7.2-3-12-3c-10.2,0-18.7,6.7-18.7,23.7
				v4.5c0,17.1,5.8,23.6,18.2,23.6c6.4,0,10.8-1.9,13.9-5.3h0.4v4.6h15.4v-8H494z M481.4,313.7c-2.3,2.1-5.1,3.4-8.5,3.4
				c-5.8-0.1-9.4-3.2-9.4-13.4v-7.1c0-10.4,4.2-13.9,9.9-13.9c3.1,0,5.8,0.8,8,2.7V313.7z"/>
		</g>
	</g>
</g>
</svg>
